<svg version="1.1" id="Layer_1" xmlns="http://www.w3.org/2000/svg" xmlns:xlink="http://www.w3.org/1999/xlink" x="0px" y="0px"
	 width="100%" viewBox="0 0 2000 2000" enable-background="new 0 0 2000 2000" xml:space="preserve">
<path fill="#000000" opacity="1.000000" stroke="none" 
	d="
M1253.000000,2001.000000 
	C835.333313,2001.000000 418.166656,2001.000000 1.000000,2001.000000 
	C1.000000,1334.333374 1.000000,667.666687 1.000000,1.000000 
	C667.666687,1.000000 1334.333374,1.000000 2001.000000,1.000000 
	C2001.000000,667.666687 2001.000000,1334.333374 2001.000000,2001.000000 
	C1751.833374,2001.000000 1502.666626,2001.000000 1253.000000,2001.000000 
M893.259094,1584.710693 
	C897.996155,1596.130493 903.028198,1607.438110 907.415344,1618.990723 
	C921.104370,1655.038574 935.082275,1690.990723 947.933716,1727.338623 
	C959.868591,1761.094360 970.625183,1795.270386 981.653381,1829.341553 
	C987.164062,1846.366455 992.104004,1863.575806 997.344238,1880.688843 
	C998.715881,1885.168213 1000.245178,1889.599243 1001.967834,1894.864868 
	C1011.513550,1864.250854 1020.318481,1834.622559 1030.006958,1805.286133 
	C1042.615845,1767.107178 1055.685547,1729.075195 1069.026855,1691.145264 
	C1076.744019,1669.205078 1085.276733,1647.547974 1093.650024,1625.843506 
	C1098.918335,1612.187866 1104.570557,1598.680298 1110.685913,1584.741089 
	C1121.550659,1560.935669 1131.994629,1536.926147 1143.414795,1513.390259 
	C1152.351440,1494.972412 1162.497925,1477.141724 1172.720093,1458.712646 
	C1177.379395,1450.713745 1181.729980,1442.514771 1186.759644,1434.755981 
	C1198.954712,1415.943970 1211.291260,1397.217773 1223.920654,1378.695679 
	C1230.608154,1368.888062 1238.026123,1359.578491 1245.730469,1349.763794 
	C1253.162842,1340.992554 1260.307007,1331.955811 1268.092163,1323.509644 
	C1281.172363,1309.318970 1294.282837,1295.117432 1308.085205,1281.642334 
	C1321.303345,1268.737671 1335.150513,1256.437012 1349.224243,1244.462158 
	C1360.546509,1234.828369 1372.548340,1225.983643 1384.384155,1216.966675 
	C1392.935669,1210.451904 1401.709595,1204.229004 1411.144409,1197.918335 
	C1416.093750,1194.773071 1420.953979,1191.476318 1426.007446,1188.508301 
	C1451.709106,1173.412598 1477.158936,1157.850342 1503.296265,1143.546509 
	C1522.168945,1133.218384 1541.718018,1124.008179 1561.430908,1115.360352 
	C1592.689331,1101.647583 1624.142456,1088.330566 1655.876953,1075.764648 
	C1685.010742,1064.228516 1714.572266,1053.759644 1744.049072,1043.107788 
	C1759.921265,1037.372070 1776.010864,1032.238525 1792.768188,1026.952881 
	C1829.476196,1015.332886 1866.184204,1003.712952 1903.575928,991.876587 
	C1902.226318,991.073975 1901.384766,990.331665 1900.407593,990.032043 
	C1894.360718,988.178162 1888.253418,986.519104 1882.221313,984.620056 
	C1854.209717,975.801575 1826.119629,967.217834 1798.241821,957.993286 
	C1766.344604,947.438721 1734.634277,936.318298 1702.858887,925.396790 
	C1692.893921,921.971802 1682.981079,918.395508 1672.685059,914.250854 
	C1654.302612,906.908569 1635.802734,899.845093 1617.566895,892.155090 
	C1593.469360,881.993347 1569.304199,871.920715 1545.678223,860.732300 
	C1523.139771,850.059021 1500.974121,838.510925 1479.167847,826.404785 
	C1459.416748,815.439575 1440.385498,803.179565 1421.000000,791.552063 
	C1418.119629,789.824402 1415.036255,788.435059 1411.984375,786.173645 
	C1397.489136,775.503906 1382.746826,765.150391 1368.569092,754.074219 
	C1354.779053,743.300781 1341.488281,731.880371 1328.138916,720.554504 
	C1322.350220,715.643188 1316.903687,710.320557 1311.410400,705.071045 
	C1303.630737,697.636658 1295.734741,690.305481 1288.287598,682.546997 
	C1279.996094,673.908691 1272.152222,664.840515 1263.829590,655.336670 
	C1259.662476,650.476440 1255.269165,645.790039 1251.372070,640.722168 
	C1241.137329,627.412903 1230.625488,614.276062 1221.132324,600.447144 
	C1207.525269,580.625732 1194.211304,560.562622 1181.731567,540.019958 
	C1170.430664,521.417847 1160.415039,502.034912 1149.752319,482.291595 
	C1140.205322,462.357452 1130.441650,442.523285 1121.180542,422.457153 
	C1113.909790,406.703308 1106.882935,390.814117 1100.424683,374.713440 
	C1091.215698,351.755005 1082.416748,328.625580 1073.830688,305.425598 
	C1065.289429,282.346619 1056.981812,259.174286 1049.024902,235.888016 
	C1041.067627,212.600601 1033.604858,189.142944 1026.050781,165.719421 
	C1020.336670,148.001373 1014.551392,130.296616 1009.425110,112.406212 
	C1008.297058,108.469383 1006.828674,107.694191 1003.458557,107.967194 
	C999.799316,108.263611 995.831360,106.585594 994.136780,112.345947 
	C987.696777,134.237228 981.115051,156.098373 973.976807,177.770050 
	C962.069336,213.920898 950.178833,250.091003 937.363342,285.924774 
	C926.788086,315.494659 915.239502,344.733063 903.457031,373.849213 
	C894.153259,396.840118 884.045410,419.514709 873.894958,442.150604 
	C867.710815,455.941467 860.768860,469.392548 853.855286,483.636871 
	C849.779297,491.030060 845.811401,498.485382 841.606140,505.804291 
	C830.680420,524.819885 820.260132,544.161987 808.527832,562.669922 
	C787.825317,595.328430 765.002808,626.508301 739.267212,656.224609 
	C738.805054,656.700623 738.340393,657.174255 737.881165,657.653076 
	C722.589905,673.596191 707.640259,689.886597 691.897156,705.370422 
	C679.939758,717.130859 667.268066,728.219543 654.371582,738.955322 
	C641.718506,749.488464 628.447937,759.287720 615.317688,769.236694 
	C607.303162,775.309509 599.042175,781.057068 590.180298,787.004822 
	C584.977539,790.313660 579.868835,793.782654 574.555786,796.903687 
	C551.697144,810.331482 529.288391,824.646423 505.755493,836.774902 
	C474.793365,852.732361 443.067993,867.241638 411.398834,881.781311 
	C394.149597,889.700684 376.347107,896.417236 358.776459,903.633301 
	C349.520813,907.434570 340.227203,911.143372 330.171082,914.983459 
	C329.532593,915.098633 328.862732,915.126160 328.260132,915.341675 
	C301.545288,924.895874 274.956421,934.820190 248.094574,943.940674 
	C218.463669,954.001282 188.605545,963.396790 158.800659,972.939148 
	C145.367966,977.239868 131.814148,981.160950 118.335670,985.320435 
	C112.276390,987.190308 106.267159,989.222412 99.362602,991.464294 
	C101.035194,992.292908 101.704529,992.746643 102.443497,992.973022 
	C126.459396,1000.329163 150.493668,1007.625488 174.498856,1015.016174 
	C187.024017,1018.872437 199.499802,1022.889099 212.679382,1027.176392 
	C245.897980,1038.779907 279.259186,1049.994507 312.291107,1062.107056 
	C339.858704,1072.215942 367.220978,1082.942383 394.339325,1094.201782 
	C418.499847,1104.233154 442.398804,1114.953369 466.042267,1126.152588 
	C484.600739,1134.943115 502.768860,1144.608398 520.783691,1154.481201 
	C536.471680,1163.078979 551.740417,1172.447266 567.121094,1181.598389 
	C576.033508,1186.901123 584.801086,1192.447266 593.969788,1198.415894 
	C594.423218,1198.899658 594.816223,1199.464111 595.338867,1199.855347 
	C613.996216,1213.821533 632.870667,1227.508057 651.258179,1241.820190 
	C662.764832,1250.776489 673.840637,1260.346680 684.559082,1270.238159 
	C695.110046,1279.974976 705.164917,1290.275635 715.069702,1300.678955 
	C724.607300,1310.696533 733.730713,1321.111816 742.927551,1331.449097 
	C748.355774,1337.550415 753.573303,1343.839478 759.172241,1350.677002 
	C759.673767,1351.505981 760.111877,1352.381958 760.686340,1353.156860 
	C770.184814,1365.970825 780.279846,1378.387939 789.081848,1391.662598 
	C803.784546,1413.836304 817.663269,1436.556274 831.996399,1459.765503 
	C840.686218,1475.956909 849.902710,1491.891968 857.942871,1508.399780 
	C870.113831,1533.389038 881.465942,1558.777100 893.259094,1584.710693 
z"/>
<path fill="#F27424" opacity="1.000000" stroke="none" 
	d="
M1792.002319,1026.833252 
	C1776.010864,1032.238525 1759.921265,1037.372070 1744.049072,1043.107788 
	C1714.572266,1053.759644 1685.010742,1064.228516 1655.876953,1075.764648 
	C1624.142456,1088.330566 1592.689331,1101.647583 1561.430908,1115.360352 
	C1541.718018,1124.008179 1522.168945,1133.218384 1503.296265,1143.546509 
	C1477.158936,1157.850342 1451.709106,1173.412598 1426.007446,1188.508301 
	C1420.953979,1191.476318 1416.093750,1194.773071 1410.435181,1197.577637 
	C1406.817871,1196.824707 1403.909912,1196.051880 1401.001709,1196.051270 
	C1135.032227,1195.995972 869.062805,1195.999878 603.093323,1196.000610 
	C601.593506,1196.000610 600.043640,1195.774658 598.606934,1196.078735 
	C596.898376,1196.440186 595.287170,1197.261597 593.633850,1197.883789 
	C584.801086,1192.447266 576.033508,1186.901123 567.121094,1181.598389 
	C551.740417,1172.447266 536.471680,1163.078979 520.783691,1154.481201 
	C502.768860,1144.608398 484.600739,1134.943115 466.042267,1126.152588 
	C442.398804,1114.953369 418.499847,1104.233154 394.339325,1094.201782 
	C367.220978,1082.942383 339.858704,1072.215942 312.291107,1062.107056 
	C279.259186,1049.994507 245.897980,1038.779907 212.550873,1026.692627 
	C215.143250,1025.805786 217.864090,1025.050171 220.584991,1025.049927 
	C741.446472,1024.998169 1262.307983,1025.000000 1783.169434,1025.000854 
	C1784.835571,1025.000854 1786.545776,1024.784912 1788.154297,1025.093140 
	C1789.498779,1025.350830 1790.724121,1026.229614 1792.002319,1026.833252 
z"/>
<path fill="#F47B21" opacity="1.000000" stroke="none" 
	d="
M1792.385254,1026.893066 
	C1790.724121,1026.229614 1789.498779,1025.350830 1788.154297,1025.093140 
	C1786.545776,1024.784912 1784.835571,1025.000854 1783.169434,1025.000854 
	C1262.307983,1025.000000 741.446472,1024.998169 220.584991,1025.049927 
	C217.864090,1025.050171 215.143250,1025.805786 212.210144,1026.520996 
	C199.499802,1022.889099 187.024017,1018.872437 174.498856,1015.016174 
	C150.493668,1007.625488 126.459396,1000.329163 102.443497,992.973022 
	C101.704529,992.746643 101.035194,992.292908 99.362602,991.464294 
	C106.267159,989.222412 112.276390,987.190308 118.335670,985.320435 
	C131.814148,981.160950 145.367966,977.239868 158.800659,972.939148 
	C188.605545,963.396790 218.463669,954.001282 248.094574,943.940674 
	C274.956421,934.820190 301.545288,924.895874 328.260132,915.341675 
	C328.862732,915.126160 329.532593,915.098633 330.918701,915.154419 
	C334.466125,915.550293 337.265869,915.971802 340.065704,915.972107 
	C615.337036,916.002014 890.608398,916.000000 1165.879761,916.000000 
	C1332.175659,916.000000 1498.471558,916.005371 1664.767456,915.953857 
	C1667.526489,915.953003 1670.285400,915.259033 1673.044312,914.888550 
	C1682.981079,918.395508 1692.893921,921.971802 1702.858887,925.396790 
	C1734.634277,936.318298 1766.344604,947.438721 1798.241821,957.993286 
	C1826.119629,967.217834 1854.209717,975.801575 1882.221313,984.620056 
	C1888.253418,986.519104 1894.360718,988.178162 1900.407593,990.032043 
	C1901.384766,990.331665 1902.226318,991.073975 1903.575928,991.876587 
	C1866.184204,1003.712952 1829.476196,1015.332886 1792.385254,1026.893066 
z"/>
<path fill="#F5811F" opacity="1.000000" stroke="none" 
	d="
M1672.864746,914.569702 
	C1670.285400,915.259033 1667.526489,915.953003 1664.767456,915.953857 
	C1498.471558,916.005371 1332.175659,916.000000 1165.879761,916.000000 
	C890.608398,916.000000 615.337036,916.002014 340.065704,915.972107 
	C337.265869,915.971802 334.466125,915.550293 331.308533,915.109619 
	C340.227203,911.143372 349.520813,907.434570 358.776459,903.633301 
	C376.347107,896.417236 394.149597,889.700684 411.398834,881.781311 
	C443.067993,867.241638 474.793365,852.732361 505.755493,836.774902 
	C529.288391,824.646423 551.697144,810.331482 574.555786,796.903687 
	C579.868835,793.782654 584.977539,790.313660 590.929810,787.134399 
	C593.815918,787.509155 595.952454,787.968750 598.088989,787.968994 
	C867.315979,788.001099 1136.542969,788.001953 1405.770020,787.953552 
	C1407.862305,787.953186 1409.954590,787.259216 1412.046875,786.889160 
	C1415.036255,788.435059 1418.119629,789.824402 1421.000000,791.552063 
	C1440.385498,803.179565 1459.416748,815.439575 1479.167847,826.404785 
	C1500.974121,838.510925 1523.139771,850.059021 1545.678223,860.732300 
	C1569.304199,871.920715 1593.469360,881.993347 1617.566895,892.155090 
	C1635.802734,899.845093 1654.302612,906.908569 1672.864746,914.569702 
z"/>
<path fill="#F06C26" opacity="1.000000" stroke="none" 
	d="
M593.801819,1198.149902 
	C595.287170,1197.261597 596.898376,1196.440186 598.606934,1196.078735 
	C600.043640,1195.774658 601.593506,1196.000610 603.093323,1196.000610 
	C869.062805,1195.999878 1135.032227,1195.995972 1401.001709,1196.051270 
	C1403.909912,1196.051880 1406.817871,1196.824707 1410.055176,1197.556396 
	C1401.709595,1204.229004 1392.935669,1210.451904 1384.384155,1216.966675 
	C1372.548340,1225.983643 1360.546509,1234.828369 1349.224243,1244.462158 
	C1335.150513,1256.437012 1321.303345,1268.737671 1308.085205,1281.642334 
	C1294.282837,1295.117432 1281.172363,1309.318970 1268.092163,1323.509644 
	C1260.307007,1331.955811 1253.162842,1340.992554 1244.946533,1349.895508 
	C1082.403564,1350.032715 920.644592,1350.038330 758.885559,1350.044067 
	C753.573303,1343.839478 748.355774,1337.550415 742.927551,1331.449097 
	C733.730713,1321.111816 724.607300,1310.696533 715.069702,1300.678955 
	C705.164917,1290.275635 695.110046,1279.974976 684.559082,1270.238159 
	C673.840637,1260.346680 662.764832,1250.776489 651.258179,1241.820190 
	C632.870667,1227.508057 613.996216,1213.821533 595.338867,1199.855347 
	C594.816223,1199.464111 594.423218,1198.899658 593.801819,1198.149902 
z"/>
<path fill="#F6871C" opacity="1.000000" stroke="none" 
	d="
M1412.015625,786.531372 
	C1409.954590,787.259216 1407.862305,787.953186 1405.770020,787.953552 
	C1136.542969,788.001953 867.315979,788.001099 598.088989,787.968994 
	C595.952454,787.968750 593.815918,787.509155 591.285645,787.107422 
	C599.042175,781.057068 607.303162,775.309509 615.317688,769.236694 
	C628.447937,759.287720 641.718506,749.488464 654.371582,738.955322 
	C667.268066,728.219543 679.939758,717.130859 691.897156,705.370422 
	C707.640259,689.886597 722.589905,673.596191 737.881165,657.653076 
	C738.340393,657.174255 738.805054,656.700623 740.052612,656.099792 
	C915.263184,655.969849 1089.688354,655.964661 1264.113525,655.959473 
	C1272.152222,664.840515 1279.996094,673.908691 1288.287598,682.546997 
	C1295.734741,690.305481 1303.630737,697.636658 1311.410400,705.071045 
	C1316.903687,710.320557 1322.350220,715.643188 1328.138916,720.554504 
	C1341.488281,731.880371 1354.779053,743.300781 1368.569092,754.074219 
	C1382.746826,765.150391 1397.489136,775.503906 1412.015625,786.531372 
z"/>
<path fill="#F88F18" opacity="1.000000" stroke="none" 
	d="
M1263.971558,655.648071 
	C1089.688354,655.964661 915.263184,655.969849 740.362183,655.967285 
	C765.002808,626.508301 787.825317,595.328430 808.527832,562.669922 
	C820.260132,544.161987 830.680420,524.819885 841.606140,505.804291 
	C845.811401,498.485382 849.779297,491.030060 854.469360,483.317322 
	C953.333191,482.997284 1051.583008,482.996796 1149.832764,482.996307 
	C1160.415039,502.034912 1170.430664,521.417847 1181.731567,540.019958 
	C1194.211304,560.562622 1207.525269,580.625732 1221.132324,600.447144 
	C1230.625488,614.276062 1241.137329,627.412903 1251.372070,640.722168 
	C1255.269165,645.790039 1259.662476,650.476440 1263.971558,655.648071 
z"/>
<path fill="#FA9813" opacity="1.000000" stroke="none" 
	d="
M1149.792480,482.643951 
	C1051.583008,482.996796 953.333191,482.997284 854.625366,482.997009 
	C860.768860,469.392548 867.710815,455.941467 873.894958,442.150604 
	C884.045410,419.514709 894.153259,396.840118 903.457031,373.849213 
	C915.239502,344.733063 926.788086,315.494659 937.363342,285.924774 
	C950.178833,250.091003 962.069336,213.920898 973.976807,177.770050 
	C981.115051,156.098373 987.696777,134.237228 994.136780,112.345947 
	C995.831360,106.585594 999.799316,108.263611 1003.458557,107.967194 
	C1006.828674,107.694191 1008.297058,108.469383 1009.425110,112.406212 
	C1014.551392,130.296616 1020.336670,148.001373 1026.050781,165.719421 
	C1033.604858,189.142944 1041.067627,212.600601 1049.024902,235.888016 
	C1056.981812,259.174286 1065.289429,282.346619 1073.830688,305.425598 
	C1082.416748,328.625580 1091.215698,351.755005 1100.424683,374.713440 
	C1106.882935,390.814117 1113.909790,406.703308 1121.180542,422.457153 
	C1130.441650,442.523285 1140.205322,462.357452 1149.792480,482.643951 
z"/>
<path fill="#EF6327" opacity="1.000000" stroke="none" 
	d="
M759.028931,1350.360596 
	C920.644592,1350.038330 1082.403564,1350.032715 1244.638428,1350.035645 
	C1238.026123,1359.578491 1230.608154,1368.888062 1223.920654,1378.695679 
	C1211.291260,1397.217773 1198.954712,1415.943970 1186.759644,1434.755981 
	C1181.729980,1442.514771 1177.379395,1450.713745 1172.020020,1458.724365 
	C1169.184570,1458.490967 1167.049561,1458.031982 1164.914185,1458.031250 
	C1056.354370,1457.996338 947.794495,1457.993530 839.234619,1458.044067 
	C836.785889,1458.045288 834.337402,1458.697754 831.888794,1459.046387 
	C817.663269,1436.556274 803.784546,1413.836304 789.081848,1391.662598 
	C780.279846,1378.387939 770.184814,1365.970825 760.686340,1353.156860 
	C760.111877,1352.381958 759.673767,1351.505981 759.028931,1350.360596 
z"/>
<path fill="#EE5F28" opacity="1.000000" stroke="none" 
	d="
M831.942627,1459.406006 
	C834.337402,1458.697754 836.785889,1458.045288 839.234619,1458.044067 
	C947.794495,1457.993530 1056.354370,1457.996338 1164.914185,1458.031250 
	C1167.049561,1458.031982 1169.184570,1458.490967 1171.713379,1458.893188 
	C1162.497925,1477.141724 1152.351440,1494.972412 1143.414795,1513.390259 
	C1131.994629,1536.926147 1121.550659,1560.935669 1110.010254,1584.708008 
	C1106.870239,1584.449951 1104.406006,1584.029663 1101.941528,1584.028320 
	C1032.349731,1583.991577 962.757874,1583.997070 893.166016,1583.995605 
	C881.465942,1558.777100 870.113831,1533.389038 857.942871,1508.399780 
	C849.902710,1491.891968 840.686218,1475.956909 831.942627,1459.406006 
z"/>
<path fill="#EC562A" opacity="1.000000" stroke="none" 
	d="
M893.212585,1584.353149 
	C962.757874,1583.997070 1032.349731,1583.991577 1101.941528,1584.028320 
	C1104.406006,1584.029663 1106.870239,1584.449951 1109.692627,1584.890625 
	C1104.570557,1598.680298 1098.918335,1612.187866 1093.650024,1625.843506 
	C1085.276733,1647.547974 1076.744019,1669.205078 1069.026855,1691.145264 
	C1055.685547,1729.075195 1042.615845,1767.107178 1030.006958,1805.286133 
	C1020.318481,1834.622559 1011.513550,1864.250854 1001.967834,1894.864868 
	C1000.245178,1889.599243 998.715881,1885.168213 997.344238,1880.688843 
	C992.104004,1863.575806 987.164062,1846.366455 981.653381,1829.341553 
	C970.625183,1795.270386 959.868591,1761.094360 947.933716,1727.338623 
	C935.082275,1690.990723 921.104370,1655.038574 907.415344,1618.990723 
	C903.028198,1607.438110 897.996155,1596.130493 893.212585,1584.353149 
z"/>
</svg>